<?xml version="1.0" standalone="no"?>
<!DOCTYPE svg PUBLIC "-//W3C//DTD SVG 20010904//EN"
 "http://www.w3.org/TR/2001/REC-SVG-20010904/DTD/svg10.dtd">
<svg version="1.0" xmlns="http://www.w3.org/2000/svg"
 width="512.000000pt" height="512.000000pt" viewBox="0 0 512.000000 512.000000"
 preserveAspectRatio="xMidYMid meet">
<metadata>
Created by potrace 1.14, written by Peter Selinger 2001-2017
</metadata>
<g transform="translate(0.000000,512.000000) scale(0.100000,-0.100000)"
fill="#000000" stroke="none">
<path d="M2131 4191 c-9 -6 -10 -11 -2 -15 6 -4 11 -2 11 4 0 6 5 8 12 4 7 -4
8 -3 4 4 -8 14 -7 14 -25 3z"/>
<path d="M2083 4162 c-24 -2 -43 -8 -43 -14 0 -6 8 -7 17 -3 15 5 15 3 -2 -12
-11 -11 -29 -19 -40 -19 -11 1 -20 -6 -20 -14 0 -15 -5 -16 -52 -19 -13 0 -23
-6 -23 -12 0 -5 6 -7 13 -4 6 4 3 -1 -7 -9 -11 -9 -28 -17 -38 -17 -33 -3 -38
-4 -38 -11 0 -5 0 -11 0 -14 0 -4 6 -1 13 5 10 8 14 7 14 -3 0 -7 -7 -13 -16
-13 -67 0 -72 -2 -61 -23 12 -22 1 -27 -19 -7 -11 10 -13 10 -7 0 4 -8 1 -13
-8 -13 -10 0 -13 -6 -10 -17 5 -17 5 -17 -6 0 -16 24 -33 22 -20 -3 6 -11 7
-20 3 -19 -4 1 -20 1 -35 0 -21 -1 -25 -5 -21 -21 4 -16 0 -20 -23 -21 -16 -1
-35 -1 -41 0 -7 1 -13 -7 -13 -19 0 -14 -7 -20 -25 -21 -40 -2 -45 -4 -45 -11
0 -5 0 -11 0 -14 0 -4 6 -1 13 5 10 8 14 7 14 -3 0 -8 -8 -13 -18 -11 -10 2
-21 0 -24 -5 -3 -4 -15 -6 -26 -3 -19 5 -20 4 -10 -15 10 -18 8 -21 -17 -24
-15 -2 -27 -8 -27 -15 0 -6 -4 -15 -9 -20 -5 -5 -6 -3 -2 5 4 7 2 12 -6 12 -9
0 -9 3 2 10 13 8 12 10 -4 10 -12 0 -16 -5 -12 -15 4 -11 -3 -19 -19 -25 -14
-5 -25 -16 -25 -25 0 -15 -22 -20 -65 -15 -17 2 -18 0 -5 -16 8 -10 10 -15 3
-11 -6 4 -13 3 -15 -2 -1 -5 -18 -11 -37 -13 -19 -2 -36 -11 -39 -19 -3 -11
-2 -11 7 1 10 13 11 13 11 0 0 -12 2 -12 9 -2 7 11 9 11 14 -1 3 -9 -1 -14
-11 -14 -48 0 -72 -4 -71 -10 4 -23 -3 -31 -21 -28 -11 2 -22 0 -25 -5 -3 -5
-12 -7 -20 -3 -10 3 -15 -1 -15 -13 0 -16 2 -17 10 -4 7 11 10 11 10 2 0 -8 5
-10 13 -6 7 4 9 3 4 -2 -10 -10 -14 -11 -57 -13 -27 -1 -30 -3 -20 -21 9 -17
8 -20 -10 -20 -11 0 -20 5 -20 11 0 5 5 7 12 3 7 -4 8 -3 4 5 -9 14 -26 5 -26
-14 0 -9 -7 -11 -22 -7 -14 3 -19 1 -14 -6 10 -17 -6 -37 -29 -37 -11 0 -20
-7 -20 -15 0 -14 -5 -16 -51 -19 -13 -1 -24 -9 -27 -21 -4 -14 -14 -20 -34
-20 -15 0 -23 -4 -18 -8 12 -8 13 -27 3 -38 -5 -4 -8 0 -8 9 0 22 -15 30 -17
9 -4 -84 -4 -213 2 -221 3 -6 0 -11 -7 -11 -8 0 -9 -3 -3 -8 6 -4 10 -16 10
-27 0 -11 -4 -23 -10 -27 -7 -5 -6 -8 1 -8 6 0 10 -30 9 -82 -1 -46 0 -77 2
-70 3 6 8 10 12 8 4 -3 8 1 8 9 0 8 -3 12 -7 10 -8 -5 -6 67 3 82 4 6 3 14 -2
17 -11 7 -8 37 4 36 8 0 14 -200 15 -498 1 -31 4 -41 13 -36 9 5 9 3 0 -7 -7
-7 -13 -23 -13 -35 0 -18 5 -22 21 -19 12 3 18 1 15 -3 -4 -4 -13 -7 -19 -7
-7 0 -12 -16 -12 -40 0 -22 -4 -45 -8 -52 -4 -6 -3 -14 1 -17 7 -4 9 -61 2
-61 -1 0 -3 -8 -5 -18 -2 -11 -1 -16 2 -13 4 3 12 1 19 -5 9 -8 12 -6 9 8 -2
10 -4 18 -5 18 -7 0 -4 157 2 161 5 3 8 2 7 -3 -1 -4 0 -10 1 -13 9 -21 6
-207 -3 -219 -9 -12 -9 -13 1 -7 8 5 12 0 12 -14 0 -14 -4 -19 -12 -14 -10 6
-10 4 -1 -7 8 -8 13 -43 13 -95 0 -74 2 -83 20 -89 11 -4 18 -10 15 -15 -3 -5
-1 -11 4 -14 5 -3 7 -16 4 -29 -5 -22 -5 -22 11 -2 13 16 15 17 10 3 -3 -10
-1 -18 5 -18 6 0 11 -9 11 -21 0 -11 4 -18 9 -15 12 8 32 -18 34 -43 1 -14 5
-17 13 -11 6 6 14 7 17 3 11 -11 8 -20 -8 -21 -8 -1 -22 -3 -30 -4 -8 -1 -12
-5 -9 -10 3 -4 13 -4 23 2 21 11 31 4 31 -22 0 -11 4 -17 9 -13 16 9 43 -25
31 -40 -8 -9 -4 -12 15 -10 27 3 33 -13 13 -34 -10 -11 -10 -13 0 -7 6 4 12 2
12 -3 0 -18 -5 -26 -13 -23 -5 1 -6 -2 -2 -8 9 -15 35 7 29 24 -3 7 2 13 10
13 8 0 13 -8 11 -19 -2 -10 5 -22 16 -29 12 -6 18 -13 15 -16 -3 -3 2 -12 10
-20 8 -8 12 -19 9 -24 -6 -8 8 -13 28 -10 12 2 8 -24 -5 -38 -11 -10 -10 -11
5 -6 10 4 17 2 17 -4 0 -6 -6 -11 -12 -11 -9 0 -8 -3 2 -9 18 -12 33 -3 26 16
-3 8 -2 12 3 9 12 -8 21 -46 10 -46 -4 0 -5 -7 -2 -17 5 -12 3 -14 -7 -8 -9 6
-11 4 -5 -5 6 -10 12 -7 27 11 11 15 16 18 12 7 -3 -10 -1 -18 5 -18 6 0 11
-12 11 -27 0 -17 3 -23 8 -16 10 15 26 4 30 -22 2 -11 8 -24 14 -30 8 -7 9 -6
4 2 -5 9 -2 11 9 7 13 -5 13 -9 3 -22 -10 -12 -10 -14 0 -8 8 5 12 1 12 -13 0
-19 26 -34 60 -35 8 -1 14 -6 13 -12 -1 -7 7 -20 19 -30 12 -11 18 -14 15 -7
-6 9 16 11 82 10 51 -1 87 -6 83 -11 -3 -5 3 -6 13 -2 18 7 18 6 0 -14 -18
-20 -18 -21 0 -14 13 5 16 4 10 -5 -5 -8 1 -7 17 3 21 13 27 14 51 1 15 -8 25
-10 22 -4 -4 6 18 8 59 6 37 -1 66 -6 66 -10 0 -4 0 -10 0 -13 0 -4 -6 -1 -14
5 -8 7 -17 8 -20 3 -3 -6 1 -15 9 -22 8 -7 15 -9 15 -5 0 4 8 1 18 -6 15 -13
16 -12 4 2 -12 15 -7 17 50 13 35 -2 100 -5 145 -6 44 -2 79 -6 76 -10 -2 -5
2 -8 9 -8 9 0 9 -3 -2 -10 -8 -5 -11 -10 -6 -10 5 0 2 -8 -5 -17 -11 -15 -9
-14 9 1 12 11 25 17 28 13 3 -3 17 -2 31 4 13 5 22 5 19 1 -3 -5 22 -6 55 -4
41 3 59 1 59 -7 0 -7 -5 -9 -12 -5 -7 4 -8 3 -4 -4 4 -6 13 -9 21 -6 8 4 13
10 10 14 -3 5 3 7 12 5 10 -2 21 -4 26 -4 18 -2 5 -18 -15 -17 -11 0 -22 -5
-24 -12 -1 -7 0 -8 3 -2 3 7 15 3 31 -12 15 -13 21 -16 14 -6 -12 16 -2 34 12
21 3 -4 61 -8 129 -9 67 -1 124 -3 127 -4 3 -1 9 -2 14 -1 5 1 4 -4 -2 -12
-10 -11 -9 -17 3 -27 9 -8 15 -9 13 -4 -3 9 4 14 23 14 5 0 7 -6 3 -12 -6 -10
-4 -10 8 0 19 15 100 13 110 -2 5 -7 8 -7 8 2 0 6 4 12 10 12 5 0 7 -7 4 -15
-4 -10 0 -15 11 -15 10 0 13 -4 9 -12 -6 -10 -5 -10 8 0 13 10 18 9 29 -5 12
-15 12 -16 -4 -10 -12 5 -16 3 -11 -5 5 -8 1 -9 -12 -4 -14 5 -16 4 -8 -4 16
-16 55 5 48 25 -12 29 13 15 29 -17 16 -31 16 -32 12 -6 -3 21 0 26 13 21 9
-4 11 -8 5 -10 -7 -3 -9 -11 -6 -19 3 -8 -2 -21 -12 -28 -30 -22 -9 -33 59
-32 71 2 85 8 66 30 -6 9 -10 21 -7 28 4 8 6 7 6 -4 1 -10 5 -18 10 -18 5 0 8
-36 7 -80 -1 -67 1 -77 12 -63 11 15 12 15 12 1 0 -9 -5 -20 -10 -23 -6 -4 -9
-19 -8 -34 2 -26 5 -28 33 -25 30 4 30 4 6 -9 l-23 -14 23 -6 c36 -10 42 -8
35 8 -6 18 32 30 63 20 13 -4 21 -2 21 5 0 6 -5 8 -10 5 -6 -3 -10 -1 -10 5 0
6 -5 8 -10 5 -13 -8 -8 18 5 27 6 4 17 -2 26 -14 17 -22 17 -22 13 8 -4 26 -3
27 5 7 12 -26 17 -29 18 -10 0 6 2 19 4 27 2 8 -2 14 -9 12 -8 -1 -11 1 -8 6
2 4 17 7 33 6 15 0 31 4 35 10 6 8 8 7 8 -1 0 -6 8 -10 19 -8 15 3 18 -2 16
-24 -1 -17 3 -28 11 -28 7 0 11 4 8 8 -6 10 43 5 54 -5 4 -4 7 -13 7 -19 0 -7
6 -13 13 -13 6 -1 13 -2 15 -4 6 -5 57 -5 57 1 0 3 7 6 16 6 15 0 15 -1 0 -13
-9 -6 -26 -9 -38 -6 -14 3 -19 1 -16 -8 2 -7 22 -14 44 -15 21 -2 33 0 27 2
-7 3 -13 9 -13 14 0 6 4 8 8 5 5 -3 10 45 11 107 2 105 10 135 33 121 4 -3 8
3 8 12 0 14 -3 15 -12 6 -16 -16 -28 -15 -28 1 0 10 17 14 56 16 52 1 92 20
77 35 -4 3 14 7 38 8 80 2 87 6 69 35 -10 16 -11 16 -7 -4 3 -13 3 -23 1 -23
-5 0 -27 49 -28 62 -1 4 -7 13 -15 20 -8 7 -11 8 -8 2 3 -6 0 -11 -7 -11 -7 0
-13 6 -13 14 0 7 4 13 9 13 5 0 3 6 -4 13 -7 8 -20 12 -30 9 -13 -3 -16 1 -13
20 4 20 1 24 -16 24 -13 -1 -23 6 -25 17 -1 10 2 14 8 11 7 -5 8 -2 2 7 -14
24 -16 51 -2 43 8 -5 7 0 -2 11 -13 17 -13 18 0 10 13 -8 13 -7 1 8 -12 15
-11 17 3 17 9 0 16 -6 16 -12 0 -9 3 -8 10 2 5 9 5 19 -1 26 -6 8 -4 14 6 18
10 4 13 11 8 18 -11 18 -11 68 0 68 13 0 40 30 33 37 -3 3 -13 0 -23 -8 -11
-9 -14 -10 -9 -1 8 13 2 14 -54 13 -19 0 -29 2 -22 5 6 3 9 11 5 17 -4 7 2 5
12 -3 17 -14 18 -13 12 8 -4 19 -2 22 11 17 14 -5 15 -4 5 6 -18 18 -16 39 2
39 8 0 15 -5 15 -11 0 -5 -5 -7 -12 -3 -7 4 -8 3 -4 -5 13 -20 28 0 24 30 -3
16 -1 29 3 29 4 0 6 9 4 19 -3 15 1 19 16 16 19 -4 20 -1 22 56 1 18 6 25 14
22 7 -3 16 2 19 11 3 9 11 13 18 9 6 -4 4 2 -4 12 -14 17 -13 18 8 12 13 -3
21 -3 18 0 -3 4 0 13 7 21 10 13 9 15 -3 8 -8 -4 -6 0 4 8 11 9 15 16 10 16
-5 0 -10 10 -11 23 -2 22 -2 22 17 -3 10 -14 22 -21 26 -17 4 4 2 7 -4 7 -7 0
-9 12 -6 33 3 17 5 40 5 50 0 19 14 23 25 5 4 -6 3 -8 -3 -5 -5 3 -10 0 -10
-7 0 -7 6 -13 12 -13 7 0 12 7 12 16 1 73 1 74 28 57 30 -20 32 -14 4 13 -15
14 -17 21 -8 26 8 5 10 4 5 -3 -4 -7 -2 -12 3 -12 11 0 15 21 11 49 -1 9 5 12
20 8 19 -5 21 -2 17 20 -4 21 -2 24 17 19 18 -4 19 -3 6 7 -16 13 -25 37 -14
37 4 0 12 -7 19 -17 9 -13 14 -13 20 -3 5 9 4 11 -4 6 -8 -6 -10 -1 -6 16 3
12 7 34 9 48 1 14 9 25 16 25 8 0 17 14 22 32 5 18 13 35 18 38 6 3 7 -1 4 -9
-4 -10 -1 -16 8 -16 10 0 13 11 10 40 -4 37 -2 39 20 35 22 -4 24 -2 24 38 -1
37 2 42 21 40 20 -2 21 0 13 22 -6 16 -6 25 0 25 5 0 7 6 4 14 -3 8 -1 17 5
21 6 3 9 0 5 -8 -8 -21 11 -30 26 -12 9 11 9 15 1 15 -8 0 -9 6 -3 18 5 9 8
25 7 34 -3 15 0 16 16 8 27 -15 24 4 -3 24 -22 16 -22 16 -1 6 19 -9 21 -7 19
15 -2 14 -8 31 -14 37 -8 8 -9 4 -6 -13 5 -19 4 -21 -5 -9 -6 8 -11 24 -11 35
0 12 -6 27 -12 34 -10 11 -10 13 0 7 7 -4 12 -1 12 8 0 9 -7 13 -20 11 -20 -4
-25 11 -20 60 2 17 0 18 -16 5 -10 -8 -15 -10 -11 -3 4 6 3 13 -3 15 -5 1 -11
19 -12 40 -2 20 -6 34 -10 31 -5 -2 -8 1 -8 7 0 6 -4 8 -10 5 -9 -5 -14 21
-13 62 1 7 -2 11 -6 9 -15 -10 -30 11 -32 45 -2 21 -8 36 -16 36 -9 0 -10 -4
-2 -13 7 -8 7 -14 -1 -19 -5 -3 -10 -5 -11 -3 -5 22 -9 49 -11 79 -3 32 -25
53 -25 23 0 -7 5 -10 10 -7 6 4 7 1 3 -6 -14 -22 -22 -3 -28 60 -1 17 -7 25
-15 22 -7 -3 -10 -10 -6 -17 3 -6 2 -7 -3 -3 -5 5 -9 16 -10 25 -1 10 -2 27
-3 38 0 13 -10 24 -22 27 -15 4 -20 11 -16 21 4 9 2 16 -2 16 -5 0 -7 8 -4 19
3 10 -1 22 -8 26 -7 5 -10 4 -5 -3 3 -6 1 -14 -6 -18 -7 -4 -10 -4 -6 1 4 4 3
14 -3 21 -6 7 -12 28 -13 46 -1 18 -7 33 -13 33 -18 0 -24 11 -25 46 -1 19 -3
28 -5 22 -8 -23 -32 12 -35 50 -1 24 -6 33 -15 30 -7 -3 -15 1 -18 8 -9 28
-13 68 -7 72 4 2 2 3 -4 1 -21 -4 -35 13 -37 48 -2 32 -24 52 -24 22 0 -7 5
-10 10 -7 6 4 7 1 3 -6 -9 -14 -19 -7 -22 16 -6 42 -15 63 -24 58 -9 -5 -14 6
-12 25 0 3 -14 7 -31 9 -18 2 -43 4 -57 6 -14 2 -29 3 -34 4 -5 1 -3 7 3 15 9
10 7 13 -6 13 -79 0 -92 3 -87 21 5 16 5 16 -6 0 -6 -10 -15 -18 -20 -18 -12
0 -9 22 5 33 6 4 1 6 -10 5 -51 -4 -115 3 -115 13 0 5 5 7 12 3 7 -4 8 -3 4 5
-4 6 -12 9 -17 6 -5 -4 -9 -1 -9 5 0 8 -6 7 -21 -1 -15 -8 -19 -8 -15 0 5 7
-3 11 -21 12 -29 1 -76 5 -103 8 -13 1 -13 2 0 11 8 5 20 10 25 10 6 0 3 -5
-5 -10 -12 -7 -10 -9 7 -7 15 1 19 5 13 13 -8 9 -74 17 -132 16 -10 -1 -20 4
-23 9 -4 5 -11 6 -17 3 -7 -4 -8 -2 -4 5 4 6 11 9 16 6 5 -3 11 -2 14 3 4 7
-38 13 -127 15 -34 1 -35 2 -17 12 11 6 18 14 14 18 -4 3 -16 2 -27 -4 -14 -8
-18 -8 -13 0 5 7 -7 11 -33 12 -78 3 -84 4 -88 19 -3 9 -1 11 4 5 12 -15 35
-17 31 -3 -4 12 -32 17 -90 19 -24 0 -32 8 -30 29 0 3 -29 7 -64 8 -48 2 -70
8 -85 23 -11 11 -33 19 -53 19 -19 0 -37 6 -39 13 -4 10 -6 10 -6 0 -1 -7 -10
-13 -21 -13 -11 0 -19 3 -19 8 3 18 -2 32 -11 32 -5 0 -7 -6 -4 -14 3 -8 1
-17 -5 -21 -7 -3 -8 0 -5 9 7 19 -12 28 -65 30 -33 1 -38 4 -30 18 9 18 -5 20
-30 4 -10 -6 -12 -5 -7 2 5 8 -5 12 -31 13 -21 1 -47 2 -58 3 -11 0 -39 0 -62
-2z m426 -115 c0 -9 -2 -8 -6 1 -2 6 -10 9 -15 6 -7 -4 -8 -2 -4 5 9 13 26 5
25 -12z m121 -27 c0 -5 -5 -10 -11 -10 -5 0 -7 5 -4 10 3 6 8 10 11 10 2 0 4
-4 4 -10z m34 -11 c-3 -5 -10 -7 -15 -3 -5 3 -7 10 -3 15 3 5 10 7 15 3 5 -3
7 -10 3 -15z m651 -199 c-3 -5 -12 -10 -18 -10 -7 0 -6 4 3 10 19 12 23 12 15
0z m469 -281 c-3 -5 -10 -7 -15 -3 -5 3 -7 10 -3 15 3 5 10 7 15 3 5 -3 7 -10
3 -15z m41 -87 c-3 -3 -11 0 -18 7 -9 10 -8 11 6 5 10 -3 15 -9 12 -12z
m-3029 -284 c3 -4 -1 -5 -10 -4 -8 1 -18 5 -22 8 -3 4 1 5 10 4 8 -1 18 -5 22
-8z m3338 -304 c3 -8 2 -12 -4 -9 -6 3 -10 10 -10 16 0 14 7 11 14 -7z m40
-80 c3 -8 2 -12 -4 -9 -6 3 -10 10 -10 16 0 14 7 11 14 -7z m-3334 -288 c0 -2
-8 -10 -17 -17 -16 -13 -17 -12 -4 4 13 16 21 21 21 13z m3350 -186 c0 -5 -2
-10 -4 -10 -3 0 -8 5 -11 10 -3 6 -1 10 4 10 6 0 11 -4 11 -10z m-463 -1005
c0 -8 -4 -12 -9 -9 -5 3 -6 10 -3 15 9 13 12 11 12 -6z m-1822 -145 c3 -5 1
-10 -4 -10 -6 0 -11 5 -11 10 0 6 2 10 4 10 3 0 8 -4 11 -10z m542 -87 c0 -7
-4 -13 -8 -13 -4 0 -9 6 -12 13 -3 8 0 14 7 14 7 0 13 -6 13 -14z m643 -152
c0 -11 -6 -23 -12 -28 -19 -11 -98 -12 -98 -1 0 6 7 8 15 4 8 -3 14 -2 14 2
-5 34 3 42 41 42 33 0 40 -3 40 -19z m20 -31 c0 -5 -4 -10 -10 -10 -5 0 -10 5
-10 10 0 6 5 10 10 10 6 0 10 -4 10 -10z m505 -100 c3 -6 -1 -7 -9 -4 -18 7
-21 14 -7 14 6 0 13 -4 16 -10z m-151 -27 c4 -10 4 -14 0 -10 -4 4 -14 1 -22
-6 -13 -11 -14 -9 -1 11 17 26 15 26 23 5z m-297 -38 c-4 -31 -19 -38 -23 -11
-3 23 3 36 17 36 5 0 8 -11 6 -25z m438 5 c-3 -5 -1 -10 6 -10 7 0 10 -3 6 -6
-9 -9 -28 6 -22 17 4 5 8 9 11 9 3 0 2 -4 -1 -10z"/>
<path d="M3024 909 c-3 -6 -1 -16 5 -22 9 -9 10 -7 5 8 -7 20 -7 20 15 1 17
-16 21 -17 16 -4 -8 21 -32 30 -41 17z"/>
<path d="M1965 4111 c-6 -11 13 -26 22 -17 4 3 1 6 -6 6 -7 0 -9 5 -6 10 3 6
4 10 1 10 -3 0 -7 -4 -11 -9z"/>
<path d="M2815 3991 c-3 -5 0 -13 6 -17 7 -4 9 -3 5 4 -3 5 0 13 6 15 9 4 10
6 1 6 -6 1 -14 -3 -18 -8z"/>
<path d="M1646 3905 c4 -8 11 -15 16 -15 6 0 5 6 -2 15 -7 8 -14 15 -16 15 -2
0 -1 -7 2 -15z"/>
<path d="M3060 3900 c-9 -6 -10 -10 -3 -10 6 0 15 5 18 10 8 12 4 12 -15 0z"/>
<path d="M3589 3743 c-13 -16 -12 -17 4 -4 16 13 21 21 13 21 -2 0 -10 -8 -17
-17z"/>
<path d="M885 3431 c-6 -11 13 -26 22 -17 4 3 1 6 -6 6 -7 0 -9 5 -6 10 3 6 4
10 1 10 -3 0 -7 -4 -11 -9z"/>
<path d="M3975 3180 c-3 -5 -2 -10 4 -10 5 0 13 5 16 10 3 6 2 10 -4 10 -5 0
-13 -4 -16 -10z"/>
<path d="M766 2762 c-3 -5 1 -9 9 -9 8 0 12 4 9 9 -3 4 -7 8 -9 8 -2 0 -6 -4
-9 -8z"/>
<path d="M775 2729 c-4 -6 -5 -12 -2 -15 2 -3 7 2 10 11 7 17 1 20 -8 4z"/>
<path d="M4225 2329 c-4 -6 -4 -13 -1 -16 3 -4 6 -1 6 6 0 7 5 9 12 5 7 -4 8
-3 4 4 -9 15 -13 15 -21 1z"/>
<path d="M4220 2286 c0 -2 8 -10 18 -17 15 -13 16 -12 3 4 -13 16 -21 21 -21
13z"/>
<path d="M4179 2248 c15 -21 31 -23 31 -6 0 6 -3 8 -7 5 -3 -4 -13 -1 -22 6
-14 11 -14 10 -2 -5z"/>
<path d="M4195 2200 c3 -5 8 -10 11 -10 2 0 4 5 4 10 0 6 -5 10 -11 10 -5 0
-7 -4 -4 -10z"/>
<path d="M785 2140 c-3 -6 1 -7 9 -4 18 7 21 14 7 14 -6 0 -13 -4 -16 -10z"/>
<path d="M4093 2135 c0 -7 6 -12 14 -11 19 3 21 19 2 21 -9 2 -16 -3 -16 -10z"/>
<path d="M4055 1960 c-3 -5 -1 -10 4 -10 6 0 11 5 11 10 0 6 -2 10 -4 10 -3 0
-8 -4 -11 -10z"/>
<path d="M846 1937 c3 -10 9 -15 12 -12 3 3 0 11 -7 18 -10 9 -11 8 -5 -6z"/>
<path d="M4109 1923 c-13 -16 -12 -17 4 -4 16 13 21 21 13 21 -2 0 -10 -8 -17
-17z"/>
<path d="M846 1898 c3 -5 10 -6 15 -3 13 9 11 12 -6 12 -8 0 -12 -4 -9 -9z"/>
<path d="M3976 1835 c-9 -26 -7 -32 5 -12 6 10 9 21 6 23 -2 3 -7 -2 -11 -11z"/>
<path d="M911 1767 c-8 -10 -7 -14 2 -14 8 0 14 6 14 14 0 7 -1 13 -2 13 -2 0
-8 -6 -14 -13z"/>
<path d="M913 1715 c0 -8 4 -12 9 -9 5 3 6 10 3 15 -9 13 -12 11 -12 -6z"/>
<path d="M3930 1686 c0 -2 7 -7 16 -10 8 -3 12 -2 9 4 -6 10 -25 14 -25 6z"/>
<path d="M3820 1655 c-8 -9 -8 -15 -2 -15 12 0 26 19 19 26 -2 2 -10 -2 -17
-11z"/>
<path d="M3893 1649 c-2 -23 3 -25 10 -4 4 8 3 16 -1 19 -4 3 -9 -4 -9 -15z"/>
<path d="M3850 1619 c0 -5 5 -7 10 -4 6 3 10 8 10 11 0 2 -4 4 -10 4 -5 0 -10
-5 -10 -11z"/>
<path d="M1100 1585 c0 -10 29 -24 34 -17 3 6 -3 12 -14 15 -11 3 -20 4 -20 2z"/>
<path d="M3776 1581 c-4 -5 -2 -12 3 -15 5 -4 12 -2 15 3 4 5 2 12 -3 15 -5 4
-12 2 -15 -3z"/>
<path d="M1217 1335 c-4 -8 -3 -16 1 -19 4 -3 9 4 9 15 2 23 -3 25 -10 4z"/>
<path d="M1275 1311 c-3 -5 -2 -12 3 -15 5 -3 9 1 9 9 0 17 -3 19 -12 6z"/>
<path d="M1313 1285 c0 -8 4 -12 9 -9 5 3 6 10 3 15 -9 13 -12 11 -12 -6z"/>
<path d="M1406 1222 c-6 -11 6 -26 23 -30 11 -2 12 0 3 11 -7 8 -9 17 -5 20 3
4 1 7 -5 7 -6 0 -13 -4 -16 -8z"/>
<path d="M1597 1177 c4 -6 0 -8 -10 -4 -19 7 -33 -8 -17 -18 6 -4 18 -1 27 7
9 7 18 12 20 11 1 -2 4 0 6 4 1 3 -6 7 -16 9 -10 1 -14 -2 -10 -9z"/>
<path d="M1529 1163 c-13 -16 -12 -17 4 -4 16 13 21 21 13 21 -2 0 -10 -8 -17
-17z"/>
<path d="M3732 1164 c-7 -8 -8 -14 -3 -14 10 0 25 19 20 25 -2 1 -10 -3 -17
-11z"/>
<path d="M1416 1158 c3 -4 11 -5 19 -1 21 7 19 12 -4 10 -11 0 -18 -5 -15 -9z"/>
<path d="M1714 1133 c21 -25 36 -30 36 -11 0 6 -3 8 -7 5 -3 -4 -16 1 -27 10
-21 18 -21 18 -2 -4z"/>
<path d="M1776 1142 c-3 -5 1 -9 9 -9 8 0 12 4 9 9 -3 4 -7 8 -9 8 -2 0 -6 -4
-9 -8z"/>
<path d="M1517 1133 c-10 -9 -9 -23 1 -23 5 0 9 7 9 15 0 17 -1 18 -10 8z"/>
<path d="M1675 1130 c-4 -6 -11 -7 -17 -4 -7 4 -8 2 -4 -5 6 -9 11 -9 22 0 14
11 18 19 10 19 -3 0 -8 -5 -11 -10z"/>
<path d="M1479 1113 c-13 -16 -12 -17 4 -4 16 13 21 21 13 21 -2 0 -10 -8 -17
-17z"/>
<path d="M1546 1118 c3 -5 10 -6 15 -3 13 9 11 12 -6 12 -8 0 -12 -4 -9 -9z"/>
<path d="M1416 1102 c-3 -5 1 -9 9 -9 8 0 12 4 9 9 -3 4 -7 8 -9 8 -2 0 -6 -4
-9 -8z"/>
<path d="M1905 1099 c-3 -4 2 -6 10 -5 21 3 28 13 10 13 -9 0 -18 -4 -20 -8z"/>
<path d="M1956 1102 c-2 -4 -1 -14 4 -22 7 -11 9 -9 7 8 -1 24 -3 26 -11 14z"/>
<path d="M2071 1093 c7 -7 19 -12 28 -11 8 2 16 -2 16 -9 0 -6 4 -15 9 -20 5
-4 6 -3 3 3 -4 7 0 17 8 24 17 14 10 34 -8 23 -18 -11 -49 -14 -43 -5 3 5 -1
9 -9 9 -11 0 -12 -4 -4 -14z"/>
<path d="M1809 1083 c-13 -16 -12 -17 4 -4 16 13 21 21 13 21 -2 0 -10 -8 -17
-17z"/>
<path d="M1850 1096 c0 -2 8 -10 18 -17 15 -13 16 -12 3 4 -13 16 -21 21 -21
13z"/>
<path d="M1715 1081 c-3 -5 -2 -12 3 -15 5 -3 9 1 9 9 0 17 -3 19 -12 6z"/>
<path d="M1787 1059 c7 -7 15 -10 18 -7 3 3 -2 9 -12 12 -14 6 -15 5 -6 -5z"/>
<path d="M1880 1060 c-9 -6 -10 -10 -3 -10 6 0 15 5 18 10 8 12 4 12 -15 0z"/>
<path d="M2066 1062 c-2 -4 4 -8 14 -8 10 0 16 4 14 8 -3 4 -9 8 -14 8 -5 0
-11 -4 -14 -8z"/>
<path d="M2295 1060 c-3 -5 -1 -10 4 -10 6 0 11 5 11 10 0 6 -2 10 -4 10 -3 0
-8 -4 -11 -10z"/>
<path d="M1515 1040 c-3 -5 -1 -10 4 -10 6 0 11 5 11 10 0 6 -2 10 -4 10 -3 0
-8 -4 -11 -10z"/>
<path d="M1766 1018 c3 -5 10 -6 15 -3 13 9 11 12 -6 12 -8 0 -12 -4 -9 -9z"/>
<path d="M1815 1020 c3 -5 8 -10 11 -10 2 0 4 5 4 10 0 6 -5 10 -11 10 -5 0
-7 -4 -4 -10z"/>
<path d="M2621 1022 c-1 -7 -6 -10 -13 -6 -6 4 -8 3 -5 -3 8 -13 62 -11 62 2
0 5 -6 10 -13 11 -6 1 -10 -2 -6 -7 3 -5 1 -9 -5 -9 -5 0 -12 6 -14 13 -4 9
-6 9 -6 -1z"/>
<path d="M2451 1007 c-8 -10 -7 -14 2 -14 8 0 14 6 14 14 0 7 -1 13 -2 13 -2
0 -8 -6 -14 -13z"/>
<path d="M2067 999 c7 -7 15 -10 18 -7 3 3 -2 9 -12 12 -14 6 -15 5 -6 -5z"/>
<path d="M2549 977 c6 -8 7 -18 3 -22 -4 -5 -1 -5 6 -1 10 6 10 11 1 22 -6 8
-14 14 -16 14 -3 0 0 -6 6 -13z"/>
<path d="M2639 973 c-13 -16 -12 -17 4 -4 9 7 17 15 17 17 0 8 -8 3 -21 -13z"/>
<path d="M2800 965 c13 -14 26 -25 28 -25 3 0 -5 11 -18 25 -13 14 -26 25 -28
25 -3 0 5 -11 18 -25z"/>
<path d="M2329 963 c-13 -16 -12 -17 4 -4 16 13 21 21 13 21 -2 0 -10 -8 -17
-17z"/>
<path d="M2515 970 c-4 -6 -12 -7 -18 -4 -7 4 -8 3 -4 -1 13 -15 34 -14 34 1
0 17 -4 18 -12 4z"/>
<path d="M2396 962 c-3 -5 1 -9 9 -9 8 0 12 4 9 9 -3 4 -7 8 -9 8 -2 0 -6 -4
-9 -8z"/>
<path d="M2755 961 c-3 -5 -2 -12 3 -15 5 -3 9 1 9 9 0 17 -3 19 -12 6z"/>
<path d="M2469 923 c-13 -16 -12 -17 4 -4 16 13 21 21 13 21 -2 0 -10 -8 -17
-17z"/>
<path d="M3765 931 c-3 -5 -2 -12 3 -15 5 -3 9 1 9 9 0 17 -3 19 -12 6z"/>
<path d="M2210 921 c0 -6 4 -13 10 -16 6 -3 7 1 4 9 -7 18 -14 21 -14 7z"/>
<path d="M2586 918 c3 -5 10 -6 15 -3 13 9 11 12 -6 12 -8 0 -12 -4 -9 -9z"/>
<path d="M2839 913 c-12 -16 -12 -17 2 -6 9 7 20 9 24 5 5 -4 5 -1 1 6 -9 16
-11 15 -27 -5z"/>
<path d="M2940 919 c-12 -9 -12 -10 3 -5 15 5 17 2 12 -17 -5 -20 -5 -20 6 -4
14 23 0 40 -21 26z"/>
<path d="M2921 884 c0 -11 3 -14 6 -6 3 7 2 16 -1 19 -3 4 -6 -2 -5 -13z"/>
<path d="M3690 881 c0 -6 4 -13 10 -16 6 -3 7 1 4 9 -7 18 -14 21 -14 7z"/>
<path d="M2710 860 c0 -5 5 -10 11 -10 5 0 7 5 4 10 -3 6 -8 10 -11 10 -2 0
-4 -4 -4 -10z"/>
<path d="M2835 860 c3 -5 8 -10 11 -10 2 0 4 5 4 10 0 6 -5 10 -11 10 -5 0 -7
-4 -4 -10z"/>
<path d="M2930 860 c-9 -6 -10 -10 -3 -10 6 0 15 5 18 10 8 12 4 12 -15 0z"/>
<path d="M2957 853 c-12 -11 -8 -23 7 -23 8 0 18 4 21 10 4 6 -1 7 -11 3 -12
-4 -15 -3 -10 5 8 13 3 16 -7 5z"/>
<path d="M3010 836 c0 -20 17 -29 26 -15 5 8 3 9 -6 4 -10 -6 -12 -4 -7 8 3
10 2 17 -3 17 -6 0 -10 -6 -10 -14z"/>
<path d="M3050 840 c6 -4 11 -11 11 -16 -2 -16 24 -9 27 7 2 12 -4 17 -24 17
-15 0 -21 -4 -14 -8z m30 -10 c0 -5 -5 -10 -11 -10 -5 0 -7 5 -4 10 3 6 8 10
11 10 2 0 4 -4 4 -10z"/>
<path d="M3100 839 c0 -5 5 -7 10 -4 6 3 10 8 10 11 0 2 -4 4 -10 4 -5 0 -10
-5 -10 -11z"/>
<path d="M3679 833 c-13 -16 -12 -17 4 -4 9 7 17 15 17 17 0 8 -8 3 -21 -13z"/>
<path d="M2910 818 c0 -4 4 -8 9 -8 6 0 12 4 15 8 3 5 -1 9 -9 9 -8 0 -15 -4
-15 -9z"/>
<path d="M2990 824 c0 -5 7 -18 15 -28 8 -11 15 -16 15 -10 0 5 -7 18 -15 28
-8 11 -15 16 -15 10z"/>
<path d="M3086 805 c-11 -8 -16 -15 -10 -15 5 0 18 7 28 15 11 8 16 15 10 15
-5 0 -18 -7 -28 -15z"/>
<path d="M3715 811 c-3 -5 -2 -12 3 -15 5 -3 9 1 9 9 0 17 -3 19 -12 6z"/>
<path d="M2936 793 c-6 -14 -5 -15 5 -6 7 7 10 15 7 18 -3 3 -9 -2 -12 -12z"/>
<path d="M3035 801 c-6 -11 13 -26 22 -17 4 3 1 6 -6 6 -7 0 -9 5 -6 10 3 6 4
10 1 10 -3 0 -7 -4 -11 -9z"/>
<path d="M3095 781 c-3 -5 0 -13 6 -17 7 -4 9 -3 5 4 -3 5 0 13 6 15 9 4 10 6
1 6 -6 1 -14 -3 -18 -8z"/>
<path d="M3696 782 c-2 -4 -1 -14 4 -22 7 -11 9 -9 7 8 -1 24 -3 26 -11 14z"/>
<path d="M3016 762 c-3 -4 4 -9 15 -9 23 -2 25 3 4 10 -8 4 -16 3 -19 -1z"/>
<path d="M3060 766 c0 -2 8 -10 18 -17 15 -13 16 -12 3 4 -13 16 -21 21 -21
13z"/>
<path d="M3469 703 c-13 -16 -12 -17 4 -4 16 13 21 21 13 21 -2 0 -10 -8 -17
-17z"/>
<path d="M3086 698 c3 -5 10 -6 15 -3 13 9 11 12 -6 12 -8 0 -12 -4 -9 -9z"/>
<path d="M3355 690 c-4 -6 -10 -8 -14 -5 -5 2 -17 -5 -27 -18 -19 -22 -19 -22
1 -6 11 9 27 15 36 14 9 -2 16 4 16 11 0 17 -4 18 -12 4z"/>
<path d="M3476 682 c-3 -5 1 -9 9 -9 8 0 12 4 9 9 -3 4 -7 8 -9 8 -2 0 -6 -4
-9 -8z"/>
<path d="M3495 649 c-4 -6 -5 -12 -2 -15 2 -3 7 2 10 11 7 17 1 20 -8 4z"/>
<path d="M3330 642 c0 -5 7 -9 15 -9 8 0 12 4 9 9 -3 4 -9 8 -15 8 -5 0 -9 -4
-9 -8z"/>
<path d="M3461 636 c-9 -11 -9 -16 1 -22 7 -4 10 -4 6 1 -4 4 -3 14 3 22 6 7
9 13 6 13 -2 0 -10 -6 -16 -14z"/>
<path d="M3170 619 c0 -5 5 -7 10 -4 6 3 10 8 10 11 0 2 -4 4 -10 4 -5 0 -10
-5 -10 -11z"/>
<path d="M3515 610 c-4 -6 -11 -7 -17 -4 -7 4 -8 2 -4 -5 6 -9 11 -9 22 0 14
11 18 19 10 19 -3 0 -8 -5 -11 -10z"/>
<path d="M3295 591 c-3 -5 -2 -12 3 -15 5 -3 9 1 9 9 0 17 -3 19 -12 6z"/>
<path d="M3373 575 c0 -8 4 -12 9 -9 5 3 6 10 3 15 -9 13 -12 11 -12 -6z"/>
<path d="M3450 585 c0 -7 30 -13 34 -7 3 4 -4 9 -15 9 -10 1 -19 0 -19 -2z"/>
<path d="M3230 541 c0 -6 4 -13 10 -16 6 -3 7 1 4 9 -7 18 -14 21 -14 7z"/>
</g>
</svg>
